<svg width="500" height="500" viewBox="0 0 500 500" fill="none" xmlns="http://www.w3.org/2000/svg">
<path fill-rule="evenodd" clip-rule="evenodd" d="M78 0C62.536 0 50 12.536 50 28V174.329C50 177.512 48.7357 180.564 46.4853 182.815L45.4853 183.815C45.3794 183.921 45.2724 184.024 45.1644 184.125L0 229.289V270.711L45.1644 315.875C45.2724 315.976 45.3794 316.079 45.4853 316.185L46.4853 317.185C48.7357 319.436 50 322.488 50 325.671V472C50 487.464 62.536 500 78 500H150V475H95C83.9543 475 75 466.046 75 455V304.971C75 301.788 73.7357 298.736 71.4853 296.485L25 250L71.4853 203.515C73.7357 201.264 75 198.212 75 195.029V45C75 33.9543 83.9543 25 95 25H150V0H78ZM500 250V229.289L454.835 184.124C454.727 184.024 454.62 183.92 454.515 183.815L453.515 182.815C451.264 180.564 450 177.512 450 174.329V28C450 12.536 437.464 0 422 0H350V25H405C416.046 25 425 33.9543 425 45V195.029C425 198.212 426.264 201.264 428.515 203.515L475 250L428.515 296.485C426.264 298.736 425 301.788 425 304.971V455C425 466.046 416.046 475 405 475H350V500H422C437.464 500 450 487.464 450 472V325.671C450 322.488 451.264 319.436 453.515 317.185L454.515 316.185C454.62 316.08 454.727 315.976 454.835 315.876L500 270.711V250ZM112 50C105.373 50 100 55.3726 100 62V192.584C100 197.129 102.568 201.284 106.633 203.317L345.578 322.789L345.605 322.803C348.298 324.162 349.998 326.921 350 329.939V396C350 398.209 348.209 400 346 400H154C151.791 400 150 398.209 150 396V325L100 300V438C100 444.627 105.373 450 112 450H388C394.627 450 400 444.627 400 438V307.416C400 302.871 397.432 298.716 393.367 296.683L154.42 177.21C151.767 175.884 150.071 173.201 150 170.246V104C150 101.791 151.791 100 154 100H346C348.209 100 350 101.791 350 104V175L400 200V62C400 55.3726 394.627 50 388 50H112Z" fill="url(#paint0_linear)"/>
<defs>
<linearGradient id="paint0_linear" x1="400" y1="0" x2="-46.8965" y2="397.241" gradientUnits="userSpaceOnUse">
<stop offset="0.0994475" stop-color="#FC00FF"/>
<stop offset="0.928177" stop-color="#00DBDE"/>
</linearGradient>
</defs>
</svg>
