<svg width="500" height="500" fill="none" xmlns="http://www.w3.org/2000/svg"><path fill-rule="evenodd" clip-rule="evenodd" d="M78 0C62.536 0 50 12.536 50 28v146.329a12 12 0 0 1-3.515 8.486l-1 1c-.106.106-.213.209-.32.31L0 229.289v41.422l45.164 45.164c.108.101.215.204.321.31l1 1A12.002 12.002 0 0 1 50 325.671V472c0 15.464 12.536 28 28 28h72v-25H95c-11.046 0-20-8.954-20-20V304.971a12 12 0 0 0-3.515-8.486L25 250l46.485-46.485A12.002 12.002 0 0 0 75 195.029V45c0-11.046 8.954-20 20-20h55V0H78zm422 250v-20.711l-45.165-45.165c-.108-.1-.215-.204-.32-.309l-1-1a12 12 0 0 1-3.515-8.486V28c0-15.464-12.536-28-28-28h-72v25h55c11.046 0 20 8.954 20 20v150.029a12 12 0 0 0 3.515 8.486L475 250l-46.485 46.485a12 12 0 0 0-3.515 8.486V455c0 11.046-8.954 20-20 20h-55v25h72c15.464 0 28-12.536 28-28V325.671a12 12 0 0 1 3.515-8.486l1-1c.105-.105.212-.209.32-.309L500 270.711V250zM112 50c-6.627 0-12 5.373-12 12v130.584a12 12 0 0 0 6.633 10.733l238.945 119.472.027.014a7.999 7.999 0 0 1 4.395 7.136V396a4 4 0 0 1-4 4H154a4 4 0 0 1-4-4v-71l-50-25v138c0 6.627 5.373 12 12 12h276c6.627 0 12-5.373 12-12V307.416a12 12 0 0 0-6.633-10.733L154.42 177.21a8 8 0 0 1-4.42-6.964V104a4 4 0 0 1 4-4h192a4 4 0 0 1 4 4v71l50 25V62c0-6.627-5.373-12-12-12H112z" fill="url(#paint0_linear)"/><defs><linearGradient id="paint0_linear" x1="400" y1="0" x2="-46.897" y2="397.241" gradientUnits="userSpaceOnUse"><stop offset=".099" stop-color="#FC00FF"/><stop offset=".928" stop-color="#00DBDE"/></linearGradient></defs></svg>